<?xml version="1.0" standalone="no"?>
<!DOCTYPE svg PUBLIC "-//W3C//DTD SVG 20010904//EN"
 "http://www.w3.org/TR/2001/REC-SVG-20010904/DTD/svg10.dtd">
<svg version="1.0" xmlns="http://www.w3.org/2000/svg"
 width="338.000000pt" height="338.000000pt" viewBox="0 0 338.000000 338.000000"
 preserveAspectRatio="xMidYMid meet">
<metadata>
Created by potrace 1.11, written by Peter Selinger 2001-2013
</metadata>
<g transform="translate(0.000000,338.000000) scale(0.100000,-0.100000)"
fill="#000000" stroke="none">
<path d="M1497 3304 c-5 -5 -36 -12 -84 -18 -16 -2 -50 -9 -78 -16 -27 -6 -57
-13 -65 -15 -8 -2 -16 -4 -17 -5 -2 -2 -6 -3 -10 -5 -5 -1 -15 -4 -23 -7 -43
-17 -56 -21 -65 -23 -23 -6 -163 -71 -197 -92 -21 -13 -42 -23 -48 -23 -5 0
-10 -4 -10 -8 0 -5 -10 -13 -23 -19 -103 -47 -349 -285 -433 -418 -10 -16 -21
-32 -24 -35 -20 -19 -143 -266 -143 -287 0 -7 -5 -13 -10 -13 -6 0 -8 -3 -4
-6 3 -3 -1 -25 -10 -47 -8 -23 -16 -50 -19 -59 -24 -100 -35 -152 -41 -197 -9
-60 -10 -353 -1 -411 11 -72 28 -164 35 -180 3 -8 7 -19 8 -25 1 -5 3 -13 5
-17 3 -9 3 -10 15 -53 4 -16 13 -39 18 -50 6 -11 12 -27 14 -36 4 -24 82 -177
115 -226 15 -23 28 -46 28 -51 0 -6 3 -12 8 -14 4 -2 27 -30 52 -63 67 -90
185 -209 275 -276 44 -33 87 -66 95 -72 40 -31 268 -147 288 -147 5 0 22 -7
38 -14 15 -8 31 -13 36 -10 4 3 8 0 8 -7 0 -7 3 -10 6 -7 3 4 20 2 37 -4 18
-5 39 -11 47 -13 8 -2 17 -4 20 -5 3 -1 10 -3 15 -4 24 -5 101 -17 115 -19 8
-2 20 -5 25 -8 6 -2 29 -4 53 -4 23 0 42 -3 42 -6 0 -10 163 -11 211 0 24 5
67 12 94 15 56 6 102 14 127 22 9 3 26 7 37 9 48 11 58 14 101 30 25 9 50 17
55 19 13 4 42 15 85 34 19 8 37 16 40 16 3 1 10 4 15 8 6 3 37 21 70 39 60 33
186 115 195 128 3 4 19 17 35 30 67 51 188 176 237 246 4 5 19 24 33 41 14 18
25 35 25 39 0 3 11 21 23 38 43 58 137 256 153 322 2 6 10 35 19 65 9 30 18
68 21 83 2 16 6 32 8 36 3 4 8 34 11 66 4 33 11 68 17 78 7 15 7 18 -2 12 -9
-6 -9 -2 -1 14 13 23 14 251 2 251 -4 0 -8 12 -8 28 -2 50 -10 113 -17 119 -3
3 -6 18 -6 31 0 28 -4 44 -51 182 -42 126 -141 321 -198 392 -129 161 -210
244 -310 318 -19 14 -39 30 -46 35 -28 25 -222 135 -238 135 -7 0 -19 6 -25
13 -7 6 -16 12 -20 13 -8 1 -37 12 -67 24 -28 13 -126 41 -152 45 -11 2 -30 6
-41 9 -21 7 -40 11 -102 23 -40 7 -416 13 -423 7z"/>
</g>
</svg>
